<svg transform="scale(2)" version="1.1" id="Jgu5TYne9D" xmlns="http://www.w3.org/2000/svg" xmlns:xlink="http://www.w3.org/1999/xlink" x="0px" y="0px" viewBox="0 0 500 500" xml:space="preserve" class="pbimage_pbimage__wrapper__image__0LEis false"><title>Graduation</title><style type="text/css"> .st0{fill:#093F68;} .st1{fill:#68E1FD;} .st2{fill:#FFFFFF;} .st3{fill:#725858;} .st4{fill:#FFC9B0;} .st5{fill:#FFBC0E;} .st6{fill:#F56132;}
 .st6{fill:#F56132;}
 .st5{fill:#FFBC0E;}
 .st4{fill:#FFC9B0;}
 .st3{fill:#725858;}
 .st2{fill:#FFFFFF;}
 .st1{fill:#68E1FD;}
 .st0{fill:#093F68;}</style><g id="character"><path class="st0" d="M319.6,334.6c1.1,3,1.9,6.2,2.2,9.4c0.2,1.8,0.4,3.6,0.4,5.4v67.1H194.5v-67.1c0-1.8,0.1-3.6,0.4-5.4
		c0.4-3.2,1.2-6.3,2.2-9.4l61.2,27.5L319.6,334.6z" fill="#093F68"></path><path class="st0" d="M322.2,418.3H194.5c-1,0-1.8-0.8-1.8-1.8c0,0,0,0,0,0v-67.1c0-1.9,0.1-3.8,0.4-5.7c0.4-3.3,1.2-6.6,2.4-9.8
		c0.2-0.5,0.5-0.9,1-1.1c0.5-0.2,1-0.2,1.5,0l60.5,27.1l60.5-27.2c0.5-0.2,1-0.2,1.5,0c0.5,0.2,0.8,0.6,1,1.1
		c1.1,3.2,1.9,6.4,2.4,9.8c0.2,1.9,0.4,3.8,0.4,5.7v67.1C324.1,417.4,323.3,418.3,322.2,418.3C322.3,418.3,322.2,418.3,322.2,418.3z
		 M196.4,414.6h124v-65.2c0-1.7-0.1-3.5-0.3-5.2c-0.3-2.4-0.8-4.8-1.5-7.1l-59.4,26.7c-0.5,0.2-1,0.2-1.5,0l-59.4-26.7
		c-0.7,2.3-1.2,4.7-1.5,7.1c-0.2,1.7-0.3,3.5-0.3,5.2V414.6z" fill="#093F68"></path><path class="st1" d="M317.4,329.5l-59,30.3l-59-30.3c7.9-10.4,14-23.3,38.3-23.3H279C300.7,306.2,309.5,319.1,317.4,329.5z" fill="#68E1FD"></path><path class="st0" d="M258.4,361.6c-0.3,0-0.6-0.1-0.8-0.2l-59-30.3c-0.9-0.5-1.3-1.6-0.8-2.5c0-0.1,0.1-0.2,0.2-0.3
		c0.9-1.2,1.8-2.4,2.6-3.6c6.9-9.6,14.7-20.4,37.2-20.4H279c21.7,0,31.1,12.5,38.8,22.6l1.1,1.4c0.6,0.8,0.5,2-0.4,2.6
		c-0.1,0.1-0.2,0.1-0.3,0.2l-59,30.3C258.9,361.5,258.7,361.6,258.4,361.6z M202.2,328.8l56.2,28.8l56.2-28.8
		c-7.4-9.8-16-20.8-35.6-20.8h-41.2c-20.6,0-27.5,9.6-34.2,18.9L202.2,328.8z" fill="#093F68"></path><polygon class="st2" points="264.1,364.1 279,306.2 237.8,306.2 253.4,364.1 	" fill="#FFFFFF"></polygon><path class="st0" d="M264.1,366h-10.7c-0.8,0-1.6-0.6-1.8-1.4l-15.6-58c-0.3-1,0.3-2,1.3-2.3c0.2,0,0.3-0.1,0.5-0.1H279
		c0.6,0,1.1,0.3,1.5,0.7c0.4,0.5,0.5,1,0.3,1.6l-14.9,58C265.7,365.4,264.9,366,264.1,366z M254.8,362.3h7.9l14-54.3h-36.5
		L254.8,362.3z" fill="#093F68"></path><polygon class="st0" points="255.5,323 258.7,327.7 250,351.6 258.4,355.2 267.4,351.3 260.3,327.4 263.1,322.8 259.6,318 	" fill="#093F68"></polygon><path class="st0" d="M258.4,357.1c-0.3,0-0.5-0.1-0.7-0.2l-8.4-3.7c-0.9-0.4-1.3-1.4-1-2.3l8.4-23l-2.6-3.9
		c-0.5-0.7-0.4-1.6,0.1-2.2l4-5c0.4-0.5,0.9-0.7,1.5-0.7c0.6,0,1.1,0.3,1.4,0.8l3.5,4.8c0.5,0.6,0.5,1.4,0.1,2.1l-2.4,3.8l6.9,23.1
		c0.3,0.9-0.2,1.8-1,2.2l-9,4C258.9,357,258.6,357.1,258.4,357.1z M252.4,350.6l6,2.6l6.8-3l-5.7-19.2L252.4,350.6z M257.9,323.1
		l1.5,2.2l1.5-2.4l-1.4-1.9L257.9,323.1z" fill="#093F68"></path><path class="st3" d="M255.2,135.2c11.6-0.2,23.2,1.1,34.6,3.9c12.2,3.1,24.3,8.3,33.8,16.7c11,9.7,14.7,22.5,14.7,37.1V244H186
		c-0.9-3,0.5-6.6,0.6-9.6c0.1-3.4-0.8-6.6-1.5-9.9c-1.8-8.3-2.8-16.8-3-25.3c-0.2-17.7,7-35.2,20.2-47.1S235.6,135.5,255.2,135.2z" fill="#725858"></path><path class="st0" d="M338.2,245.8H186c-0.8,0-1.5-0.5-1.8-1.3c-0.7-2.4-0.2-4.9,0.1-7.1c0.2-1,0.3-2,0.4-3c0-2.4-0.3-4.9-1-7.2
		c-0.2-0.7-0.3-1.5-0.5-2.2c-1.8-8.5-2.8-17.1-3-25.7c-0.3-18.4,7.5-36.6,20.8-48.5c15.4-13.9,37.9-17.1,54-17.4l0,0
		c11.8-0.2,23.5,1.2,35,3.9c14.1,3.5,25.7,9.3,34.6,17.1c10.4,9.2,15.3,21.4,15.3,38.5V244C340,245,339.2,245.8,338.2,245.8z
		 M187.6,242.1h148.8v-49.3c0-15.9-4.5-27.2-14.1-35.7c-8.4-7.5-19.6-12.9-33-16.3c-11.2-2.7-22.6-4-34.1-3.8l0,0
		c-21.9,0.4-40.2,6.2-51.6,16.4c-12.5,11.2-19.8,28.4-19.6,45.7c0.2,8.4,1.2,16.8,3,25c0.1,0.7,0.3,1.4,0.4,2.1
		c0.7,2.7,1.1,5.4,1.1,8.2c-0.1,1.2-0.3,2.3-0.5,3.5C187.7,239.4,187.6,240.7,187.6,242.1L187.6,242.1z" fill="#093F68"></path><path class="st4" d="M248.3,294.2H270l0,0V311c0,2.8-2.2,5-5,5h-11.7c-2.8,0-5-2.2-5-5V294.2L248.3,294.2z" fill="#FFC9B0"></path><path class="st0" d="M260.8,317.8h-3.3c-6.1,0-11.1-5-11.1-11.1v-12.5c0-1,0.8-1.9,1.8-1.9h0H270c1,0,1.8,0.8,1.8,1.8c0,0,0,0,0,0
		v12.5C271.8,312.8,266.9,317.8,260.8,317.8z M250.1,296.1v10.6c0,4.1,3.3,7.4,7.4,7.4h3.3c4.1,0,7.4-3.3,7.4-7.4v-10.6H250.1z" fill="#093F68"></path><ellipse class="st4" cx="197.1" cy="237.8" rx="21.1" ry="18.2" fill="#FFC9B0"></ellipse><path class="st0" d="M197.1,257.9c-12.7,0-23-9-23-20s10.3-20,23-20s22.9,9,22.9,20S209.7,257.9,197.1,257.9z M197.1,221.5
		c-10.6,0-19.3,7.3-19.3,16.3s8.6,16.3,19.3,16.3s19.2-7.3,19.2-16.3S207.7,221.5,197.1,221.5L197.1,221.5z" fill="#093F68"></path><ellipse class="st4" cx="320.1" cy="237.8" rx="21.1" ry="18.2" fill="#FFC9B0"></ellipse><path class="st0" d="M320.1,257.9c-12.6,0-23-9-23-20s10.3-20,23-20s23,9,23,20S332.8,257.9,320.1,257.9z M320.1,221.5
		c-10.6,0-19.3,7.3-19.3,16.3s8.6,16.3,19.3,16.3s19.3-7.3,19.3-16.3S330.7,221.5,320.1,221.5L320.1,221.5z" fill="#093F68"></path><path class="st4" d="M259.2,297.1L259.2,297.1c-35.1,0-63.6-28.5-63.6-63.6V197c0-5.6,4.5-10.2,10.2-10.2c0.3,0,0.7,0,1,0
		c12.3,1.2,33,2.8,53.5,2.8c16.8-0.2,33.6-1.9,50.1-5.1c5.5-1,10.9,2.6,11.9,8.1c0.1,0.6,0.2,1.2,0.2,1.8l0.4,39
		C322.8,268.6,294.3,297.1,259.2,297.1z" fill="#FFC9B0"></path><path class="st0" d="M259.2,298.9c-36.2,0-65.4-29.3-65.5-65.5V197c0-6.6,5.3-12,11.9-12.1c0.4,0,0.8,0,1.2,0.1
		c13.3,1.3,33.4,2.8,53.3,2.8c16.7-0.2,33.4-1.8,49.8-5c6.5-1.2,12.8,3,14,9.5c0.1,0.7,0.2,1.5,0.2,2.2l0.4,39
		C324.6,269.6,295.3,298.9,259.2,298.9z M205.7,188.6c-4.6,0-8.3,3.8-8.3,8.4v36.5c0,34.1,27.6,61.8,61.8,61.8s61.8-27.6,61.8-61.8
		c0,0,0,0,0,0l-0.4-39c0-4.6-3.8-8.3-8.4-8.3c-0.5,0-1,0.1-1.5,0.1c-16.6,3.2-33.5,4.9-50.5,5.1c-20.1,0-40.3-1.5-53.7-2.8
		C206.2,188.6,205.9,188.6,205.7,188.6z" fill="#093F68"></path><circle class="st0" cx="229.7" cy="224.2" r="5.9" fill="#093F68"></circle><circle class="st0" cx="290.5" cy="224.2" r="5.9" fill="#093F68"></circle><path class="st0" d="M260.2,251c-1.9,0-3.8-0.2-5.7-0.5c-1-0.2-1.7-1.1-1.5-2.1c0.2-1,1.1-1.7,2.1-1.5c0.1,0,5.1,0.9,8.7,0.1
		c0.4-1.7-1.9-8-5-13.9c-0.5-0.9-0.3-2,0.6-2.5c0.9-0.5,2-0.3,2.5,0.6c0,0.1,0.1,0.2,0.1,0.2c2.1,4,6.7,13.6,5,17.3
		c-0.4,0.9-1.2,1.6-2.1,1.8C263.4,250.9,261.8,251,260.2,251z" fill="#093F68"></path><path class="st2" d="M233.8,260v4.9c0,8.8,11.2,16,24.9,16l0,0c13.8,0,24.9-7.2,24.9-16V260H233.8z" fill="#FFFFFF"></path><path class="st0" d="M258.7,282.8c-14.8,0-26.8-8-26.8-17.8V260c0-1,0.8-1.8,1.8-1.8h49.9c1,0,1.8,0.8,1.8,1.8v4.9
		C285.5,274.8,273.5,282.8,258.7,282.8z M235.6,261.9v3c0,7.8,10.4,14.1,23.1,14.1c12.7,0,23.1-6.4,23.1-14.1v-3H235.6z" fill="#093F68"></path><path class="st0" d="M222.4,418.3c-1,0-1.9-0.8-1.9-1.9l0,0V353c-0.1-1,0.7-1.9,1.7-2c1-0.1,1.9,0.7,2,1.7c0,0.1,0,0.2,0,0.3v63.5
		C224.2,417.5,223.4,418.3,222.4,418.3C222.4,418.3,222.4,418.3,222.4,418.3z" fill="#093F68"></path><path class="st0" d="M294.4,418.3c-1,0-1.9-0.8-1.9-1.9l0,0V353c0-1,0.8-1.9,1.9-1.9s1.9,0.8,1.9,1.9v63.5
		C296.3,417.5,295.4,418.3,294.4,418.3C294.4,418.3,294.4,418.3,294.4,418.3z" fill="#093F68"></path><path class="st0" d="M229.2,250.7c-11.9,0-21.5-9.6-21.5-21.5c0-11.9,9.6-21.5,21.5-21.5c11.9,0,21.5,9.6,21.5,21.5
		C250.7,241.1,241.1,250.7,229.2,250.7z M229.2,211.4c-9.8,0-17.8,8-17.8,17.8c0,9.8,8,17.8,17.8,17.8c9.8,0,17.8-8,17.8-17.8
		C247,219.4,239.1,211.4,229.2,211.4z" fill="#093F68"></path><path class="st0" d="M290.5,250.7c-11.9,0-21.5-9.7-21.5-21.5c0-11.9,9.7-21.5,21.5-21.5c11.9,0,21.5,9.6,21.5,21.5
		C312,241.1,302.4,250.7,290.5,250.7z M290.5,211.4c-9.8,0-17.8,8-17.8,17.8s8,17.8,17.8,17.8c9.8,0,17.8-8,17.8-17.8l0,0
		C308.3,219.4,300.3,211.4,290.5,211.4z" fill="#093F68"></path><path class="st0" d="M271.9,224.8c-0.4,0-0.9-0.2-1.2-0.5c-11.3-10-20.7-1.4-21.1-1c-0.7,0.7-1.9,0.7-2.6-0.1
		c-0.7-0.7-0.7-1.9,0.1-2.6c0.1-0.1,12.2-11.4,26.1,1c0.8,0.7,0.8,1.8,0.1,2.6C272.9,224.6,272.4,224.8,271.9,224.8z" fill="#093F68"></path><path class="st0" d="M239.9,205.3L239.9,205.3l-28.1-0.1c-2,0-3.7-1.7-3.7-3.7s1.7-3.7,3.7-3.7l0,0l28.1,0.1c2,0,3.7,1.7,3.7,3.7
		S241.9,205.3,239.9,205.3z" fill="#093F68"></path><path class="st0" d="M283.6,206c-2,0-3.7-1.6-3.8-3.6s1.6-3.7,3.6-3.8l28.1-1.4c2-0.1,3.8,1.4,3.9,3.4c0,0,0,0,0,0.1
		c0.1,2-1.5,3.8-3.5,3.9l-28.1,1.4H283.6z" fill="#093F68"></path><path class="st5" d="M321.9,343.9l-63.5,27.7l-63.5-27.7c0.4-3.2,1.2-6.3,2.2-9.4c0.6-1.8,1.4-3.5,2.3-5.1l59,25.8l59-25.8
		c0.9,1.7,1.6,3.4,2.3,5.1C320.8,337.6,321.5,340.7,321.9,343.9z" fill="#FFBC0E"></path><path class="st0" d="M258.4,373.5c-0.3,0-0.5-0.1-0.7-0.2l-63.5-27.7c-0.7-0.3-1.2-1.1-1.1-1.9c0.4-3.3,1.2-6.6,2.4-9.8
		c0.7-1.8,1.5-3.6,2.4-5.3c0.5-0.9,1.5-1.2,2.4-0.8l58.2,25.5l58.2-25.5c0.9-0.4,1.9,0,2.4,0.8c2.5,4.7,4.1,9.8,4.7,15.1
		c0.1,0.8-0.3,1.6-1.1,1.9l-63.5,27.7C258.9,373.5,258.6,373.5,258.4,373.5z M196.9,342.8l61.5,26.9l61.5-26.9
		c-0.4-2.6-1.1-5.1-2-7.6c-0.4-1.1-0.9-2.3-1.4-3.4l-57.4,25.1c-0.5,0.2-1,0.2-1.5,0l-57.4-25.1c-0.5,1.1-1,2.2-1.4,3.4
		C198,337.7,197.3,340.2,196.9,342.8z" fill="#093F68"></path><path class="st0" d="M211,223.7h-13.9c-1,0.1-1.9-0.7-2-1.7s0.7-1.9,1.7-2c0.1,0,0.2,0,0.3,0H211c1,0.1,1.8,1,1.7,2
		C212.6,222.9,211.9,223.7,211,223.7z" fill="#093F68"></path><path class="st0" d="M321.8,223.7h-12.9c-1-0.1-1.8-1-1.7-2c0.1-0.9,0.8-1.6,1.7-1.7h12.9c1,0.1,1.8,1,1.7,2
		C323.4,222.9,322.7,223.7,321.8,223.7z" fill="#093F68"></path><path class="st4" d="M334.3,393.6c2.5-3.8,5.5-8.5,6.5-9.6c4.6-5.8-1.3-12-5.9-6.5c-2.9,3.6-5.6,7.5-8,11.5l-2.4-1.1
		c3.2-19.5,0.1-21.5-5.1-20.4c-3.6,0.7-5.7,11.2-6.8,19.2c-3.1,1.2-5.5,3.6-6.9,6.6l-3.3,7.5c-2.8,6.3,0,13.8,6.4,16.6c0,0,0,0,0,0
		l7.5,3.3c6.3,2.8,13.8,0,16.6-6.4c0,0,0,0,0,0l3.4-7.5C338.2,402.5,337.5,397.3,334.3,393.6z" fill="#FFC9B0"></path><path class="st0" d="M321.4,423.8c-2,0-4-0.4-5.9-1.3l-7.5-3.3c-7.3-3.3-10.6-11.8-7.3-19.1l3.3-7.5c1.4-3.1,3.8-5.6,6.9-7.1
		c2.4-16.7,5.7-19.3,8.1-19.8c1.8-0.4,4.4-0.6,6.3,1.2c2.6,2.5,3,8,1.4,18.9c2.1-3.3,4.3-6.4,6.8-9.5c2.9-3.6,6.5-3.4,8.6-1.7
		c2.5,2,3.4,6.4,0.2,10.5c-0.8,1-3.3,4.8-5.7,8.4c2.9,4.1,3.5,9.5,1.5,14.2l-3.3,7.5C332.3,420.4,327.2,423.7,321.4,423.8
		L321.4,423.8z M321.4,369.1c-0.5,0-1.1,0.1-1.6,0.2c0,0-3,0.8-5.3,17.7c-0.1,0.7-0.5,1.2-1.1,1.5c-2.6,1-4.7,3-5.9,5.6l-3.3,7.5
		c-2.4,5.4,0,11.8,5.4,14.2c0,0,0,0,0,0l7.5,3.4c5.4,2.4,11.8,0,14.2-5.4c0,0,0,0,0,0l3.4-7.5c1.7-3.8,1-8.2-1.7-11.4
		c-0.5-0.6-0.6-1.5-0.1-2.2c0.9-1.4,5.3-8.1,6.6-9.8c1.8-2.2,1.5-4.4,0.4-5.3c-0.9-0.8-2.2-0.3-3.5,1.1c-2.9,3.6-5.5,7.3-7.9,11.2
		c-0.5,0.8-1.5,1.1-2.3,0.7l-2.4-1.1c-0.8-0.3-1.2-1.2-1.1-2c2.1-13,1.2-17,0.1-18.1C322.4,369.2,321.9,369,321.4,369.1L321.4,369.1
		z" fill="#093F68"></path><path class="st0" d="M309.9,411.5c-1,0-1.8-0.8-1.9-1.8c0-0.9,0.6-1.6,1.4-1.8c4.2-1,3.4-7.6,3.4-7.6c-0.1-0.5,0.1-1,0.4-1.4
		c0.3-0.4,0.8-0.6,1.3-0.7c4.5-0.2,8.6-1.2,9.8-2.1c-1.7-1.2-7.7-2.9-13.7-3.9c-1-0.2-1.7-1.1-1.5-2.1c0,0,0,0,0,0
		c0.2-1,1.1-1.7,2.1-1.5c0,0,0,0,0,0c4.4,0.7,14.9,2.8,16.7,6c0.4,0.7,0.5,1.6,0.2,2.5c-1.3,3.4-7.6,4.4-11.6,4.8
		c-0.1,3.6-1.4,8.5-6.3,9.7C310.2,411.5,310,411.5,309.9,411.5z M324.8,396.4L324.8,396.4z" fill="#093F68"></path><path class="st0" d="M281.7,271h-47c-1,0.1-1.9-0.7-2-1.7c-0.1-1,0.7-1.9,1.7-2c0.1,0,0.2,0,0.3,0h47c1-0.1,1.9,0.7,2,1.7
		c0.1,1-0.7,1.9-1.7,2C281.9,271,281.8,271,281.7,271z" fill="#093F68"></path></g><g id="paper"><polygon class="st6" points="169,372.1 152.8,376 159.7,378.8 155.6,385.7 173.6,381.9 	"></polygon><path class="st0" d="M155.6,387.6c-1,0-1.8-0.8-1.8-1.8c0-0.3,0.1-0.7,0.3-1l3-5.1l-4.9-2c-0.9-0.4-1.4-1.5-1-2.4
		c0.2-0.5,0.7-1,1.3-1.1l16.2-3.9c0.8-0.2,1.7,0.2,2.1,1l4.6,9.8c0.4,0.9,0,2-0.9,2.5c-0.1,0.1-0.3,0.1-0.4,0.1l-18,3.8
		C155.9,387.5,155.8,387.6,155.6,387.6z M158.9,376.5l1.5,0.6c0.9,0.4,1.4,1.5,1,2.4c0,0.1-0.1,0.2-0.1,0.2l-2,3.3l11.7-2.5l-3-6.3
		L158.9,376.5z"></path><path class="st2" d="M152.5,333.3l35.4,83.4c1.6,3.6,9.4,3.8,17.5,0.4s13.4-9.2,11.9-12.8l-35.4-83.4L152.5,333.3z"></path><path class="st0" d="M194.5,421.4h-0.4c-4.1-0.1-6.9-1.5-7.9-4L150.8,334c-0.4-0.9,0-2,1-2.4c0,0,0,0,0,0l29.3-12.5
		c0.9-0.4,2,0.1,2.4,1c0,0,0,0,0,0l35.4,83.4c2,4.7-3.5,11.3-12.8,15.3C202.4,420.4,198.5,421.3,194.5,421.4z M154.9,334.3
		l34.6,81.7c0.4,1,2.2,1.7,4.6,1.7c3.6-0.1,7.1-0.9,10.4-2.3c7.9-3.4,11.7-8.4,10.9-10.4l-34.6-81.7L154.9,334.3z"></path><path class="st6" d="M197.5,358l3.9,9.1c1.6,3.6-3.8,9.4-11.9,12.8s-15.9,3.2-17.5-0.4l-3.9-9.1c1.6,3.7,9.4,3.8,17.5,0.4
		S199.1,361.7,197.5,358z"></path><path class="st0" d="M178.7,384.3h-0.4c-4.1-0.1-6.9-1.5-7.9-4l-3.9-9.1c-0.4-0.9,0-2,1-2.4c0.9-0.4,2,0,2.4,1l0,0
		c0.9,2,7.1,2.8,15.1-0.6c3.3-1.3,6.4-3.3,8.9-5.9c1.7-1.8,2.4-3.5,2-4.5l0,0c-0.4-0.9,0-2,1-2.4c0.9-0.4,2,0,2.4,1l0,0l0,0l3.9,9.1
		c2,4.8-3.5,11.3-12.8,15.3C186.6,383.3,182.7,384.2,178.7,384.3z M172.1,375l1.6,3.9c0.4,1,2.2,1.7,4.6,1.7c3.6,0,7.2-0.8,10.4-2.3
		c7.9-3.4,11.7-8.4,10.9-10.4l-1.6-3.9c-0.4,0.6-0.9,1.3-1.5,1.8c-2.9,2.9-6.4,5.2-10.2,6.8C181,374.9,175.9,375.6,172.1,375z"></path><ellipse class="st2" transform="matrix(0.9206 -0.3906 0.3906 0.9206 -114.4769 91.2618)" cx="167.1" cy="327.1" rx="15.9" ry="7.2"></ellipse><path class="st0" d="M159.2,338c-4.2,0-7.3-1.4-8.4-4c-2-4.8,3.5-11.3,12.8-15.3c3.8-1.7,7.9-2.6,12-2.6c4.1,0.1,6.9,1.5,7.9,4l0,0
		c1.1,2.5,0.1,5.5-2.7,8.5C175.1,334.3,167.4,337.7,159.2,338L159.2,338z M175.1,319.9c-3.5,0.1-6.9,0.9-10.1,2.3
		c-7.9,3.4-11.7,8.4-10.9,10.4s7.1,2.8,15.1-0.6c3.3-1.3,6.4-3.3,8.9-5.9c1.6-1.8,2.4-3.5,2-4.5l0,0c-0.4-1-2.2-1.7-4.6-1.7
		L175.1,319.9z"></path><circle class="st6" cx="197.6" cy="367.2" r="10.1"></circle><path class="st0" d="M197.6,379.2c-4.8,0-9.1-2.9-11-7.3c-2.6-6.1,0.3-13.1,6.3-15.7s13.1,0.3,15.7,6.3l0,0
		c2.5,6.1-0.4,13.1-6.5,15.7C200.7,378.9,199.2,379.2,197.6,379.2z M197.6,359c-4.5,0-8.2,3.7-8.2,8.2c0,1.1,0.2,2.2,0.7,3.2
		c1.8,4.2,6.6,6.1,10.8,4.3c4.2-1.8,6.1-6.6,4.3-10.8l0,0l0,0C203.9,361,200.9,359,197.6,359L197.6,359z"></path><path class="st4" d="M169.5,410.4c0,0-5.9-11.1,7.2-21.1l2.4,5.7c0,0,5.9-7.5,11.7-5.3c5.6,2.1,14.7,9.5,9,18.7
		C193.6,418.6,177.5,429.2,169.5,410.4z"></path><path class="st0" d="M181.9,422.6c-0.3,0-0.7,0-1,0c-3.9-0.3-9.2-2.5-13-11.4c-0.6-1.2-5.7-13.1,7.8-23.3c0.5-0.3,1-0.5,1.6-0.3
		c0.5,0.1,1,0.5,1.2,1.1l1.3,3.1c2.5-2.3,7-5.5,11.7-3.7c4.4,1.6,9.6,5.6,11.4,10.9c1.2,3.6,0.6,7.5-1.4,10.6
		C197.4,415.9,189.7,422.6,181.9,422.6z M176,392.2c-9.2,8.4-5,16.9-4.9,17.3l0.1,0.1c2.4,5.8,5.8,8.9,9.9,9.2
		c6.2,0.5,13.5-5.5,17.1-11.4c1.5-2.2,1.9-4.9,1.1-7.5c-1.4-4-5.7-7.3-9.2-8.6c-4.4-1.6-9.5,4.7-9.6,4.7c-0.6,0.8-1.8,0.9-2.6,0.3
		c-0.3-0.2-0.4-0.5-0.6-0.7L176,392.2z"></path></g><g id="hat"><path class="st1" d="M217.2,116.6l42.4,5.2l42.4-5.2v46.3c0,0-17.8,6.4-42.4,6.4s-42.4-6.4-42.4-6.4L217.2,116.6z"></path><path class="st0" d="M259.6,171.2c-24.6,0-42.3-6.2-43-6.5c-0.7-0.3-1.2-1-1.2-1.7v-46.3c0-0.5,0.2-1,0.6-1.4
		c0.4-0.3,0.9-0.5,1.4-0.4l42.2,5.2l42.2-5.2c0.5-0.1,1.1,0.1,1.5,0.4c0.4,0.4,0.6,0.9,0.6,1.4v46.3c0,0.8-0.5,1.5-1.2,1.7
		C301.9,164.9,284.2,171.2,259.6,171.2z M219,161.6c26.5,7.9,54.6,7.9,81.1,0v-42.9l-40.3,5c-0.1,0-0.3,0-0.5,0l-40.3-5L219,161.6z"></path><polygon class="st1" points="259.6,155.2 171.4,116.6 259.6,78.1 347.8,116.6 	"></polygon><path class="st0" d="M259.6,157c-0.3,0-0.5-0.1-0.7-0.2l-88.2-38.6c-0.7-0.3-1.1-1-1.1-1.7c0-0.7,0.4-1.4,1.1-1.7l88.2-38.5
		c0.5-0.2,1-0.2,1.5,0l88.2,38.6c0.7,0.3,1.1,1,1.1,1.7c0,0.7-0.4,1.4-1.1,1.7l-88.2,38.6C260.1,157,259.8,157,259.6,157z
		 M176,116.6l83.6,36.5l83.6-36.5l-83.6-36.5L176,116.6z"></path><path class="st0" d="M171.4,180.5c-1,0-1.9-0.8-1.9-1.8v0v-62c0.1-1,1-1.8,2-1.7c0.9,0.1,1.6,0.8,1.7,1.7v62
		C173.2,179.6,172.4,180.5,171.4,180.5z"></path><polygon class="st1" points="171.4,172.9 161.1,204.2 176.4,204.2 	"></polygon><path class="st0" d="M176.4,206h-15.2c-0.6,0-1.1-0.3-1.5-0.8c-0.3-0.5-0.4-1.1-0.3-1.7l10.2-31.2c0.3-1,1.4-1.5,2.3-1.2
		c0.7,0.2,1.1,0.8,1.2,1.5l5,31.2c0.2,1-0.5,2-1.5,2.1C176.6,206,176.5,206,176.4,206L176.4,206z M163.7,202.3h10.5l-3.5-21.6
		L163.7,202.3z"></path></g></svg>